<svg xmlns="http://www.w3.org/2000/svg" width="24" height="24" viewBox="0 0 24 24" fill="none" stroke="#39B0CA" stroke-width="2" stroke-linecap="round" stroke-linejoin="round">
  <path d="M12 22c-4.97 0-9-2.24-9-5v-3c0-.77.32-1.5.89-2.13"></path>
  <path d="M3 7c0-2.76 4.03-5 9-5s9 2.24 9 5-4.03 5-9 5-9-2.24-9-5z"></path>
  <path d="M15.45 11.62c-.54.46-1.04.97-1.45 1.57-.52.77-1 1.57-1.25 2.39-.13.43-.2.87-.2 1.31 0 .66.53 1.11 1.2 1.11.41 0 .77-.14 1.05-.37.57-.42.98-1.12.69-1.89v.01c-.9.11-.17.24-.23.38-.11.25-.08.45.09.62.37.38 1.27.15 1.65-.42s.4-1.3.03-1.67c-.37-.38-1.1-.38-1.58.03z"></path>
  <path d="M4.46 10.25c-1.55 1.59-1.85 4.03-.74 5.94.08.14.16.27.26.39.82 1.04 2.4.92 3.64.12.63-.4 1.21-.91 1.67-1.54.73-1 1.17-2.18 1.28-3.36.12-1.2-.19-2.41-.86-3.4-.93-1.35-2.47-2.17-4.09-2.06-1.61.1-3 1.11-3.75 2.51"></path>
  <path d="M18.21 10.09c-1.45-.07-2.96.62-3.68 1.8-.67 1.09-.67 2.76.05 3.99 1.2 2.05 2.78 3.2 2.78 3.2s2.47 2.27 3.39 3.11c.97.89 1.66-.62.99-1.62-.58-.87-1.72-1.67-1.72-1.67l-.2-.14c-.83-.64-1.7-1.24-2.37-2.04-1.38-1.67-.45-3.07 1.28-3.72 0 0 .18-.06.58-.5"></path>
  <path d="M13.08 17.04c.18.26.36.5.52.73M15.37 12.97c.6-.35 1.43-.4 2.32.09"></path>
  <circle cx="16" cy="6" r=".5" fill="#39B0CA"></circle>
  <path d="M3.73 16.14a5.81 5.81 0 0 1-.9-3.37M6.21 17.55c.06.06.11.12.17.17"></path>
  <circle cx="8" cy="6" r=".5" fill="#39B0CA"></circle>
</svg>